<?xml version="1.0" standalone="no"?>
<!DOCTYPE svg PUBLIC "-//W3C//DTD SVG 20010904//EN"
 "http://www.w3.org/TR/2001/REC-SVG-20010904/DTD/svg10.dtd">
<svg version="1.0" xmlns="http://www.w3.org/2000/svg"
 width="1000.000000pt" height="1000.000000pt" viewBox="0 0 1000.000000 1000.000000"
 preserveAspectRatio="xMidYMid meet">
<metadata>
Created by potrace 1.15, written by Peter Selinger 2001-2017
</metadata>
<g transform="translate(0.000000,1000.000000) scale(0.100000,-0.100000)"
fill="#000000" stroke="none">
<path d="M0 5000 l0 -5000 5000 0 5000 0 0 5000 0 5000 -5000 0 -5000 0 0
-5000z m6340 3007 c562 -85 935 -251 1236 -552 267 -266 405 -569 445 -980 14
-145 6 -416 -16 -565 -77 -509 -296 -961 -639 -1318 -408 -425 -908 -653
-1616 -736 -248 -30 -443 -36 -1116 -36 -376 0 -684 -3 -684 -7 -1 -19 -429
-2215 -432 -2219 -3 -2 -378 -3 -835 -2 l-829 3 627 3215 c346 1768 628 3216
628 3218 1 1 702 1 1559 -1 1414 -3 1568 -5 1672 -20z"/>
<path d="M4546 6818 c-3 -7 -82 -409 -176 -893 -94 -484 -173 -886 -175 -893
-8 -22 1083 -11 1215 11 292 50 490 145 647 310 170 179 255 423 255 737 1
224 -48 371 -163 495 -105 112 -225 175 -414 218 -83 18 -134 20 -637 24 -452
4 -549 2 -552 -9z"/>
</g>
</svg>
